<svg xmlns="http://www.w3.org/2000/svg" shape-rendering="crispEdges" viewBox="0 -0.5 32 32" width="32" height="32"><path stroke="#c95e6c" d="M0,0h32M0,1h32M0,2h3M29,2h3M0,3h2M30,3h2M0,4h2M30,4h2M0,5h2M30,5h2M0,6h2M6,6h20M30,6h2M0,7h2M6,7h20M30,7h2M0,8h2M6,8h2M15,8h2M24,8h2M30,8h2M0,9h2M6,9h2M15,9h2M24,9h2M30,9h2M0,10h2M6,10h2M10,10h10M24,10h2M30,10h2M0,11h2M6,11h2M10,11h9M24,11h2M30,11h2M0,12h2M6,12h2M10,12h8M21,12h1M24,12h2M30,12h2M0,13h2M6,13h2M10,13h7M20,13h2M24,13h2M30,13h2M0,14h2M6,14h2M10,14h6M19,14h3M24,14h2M30,14h2M0,15h2M6,15h2M10,15h5M18,15h8M30,15h2M0,16h2M6,16h2M10,16h4M17,16h9M30,16h2M0,17h2M6,17h2M10,17h3M16,17h6M24,17h2M30,17h2M0,18h2M6,18h2M10,18h2M15,18h7M24,18h2M30,18h2M0,19h2M6,19h2M10,19h2M14,19h8M24,19h2M30,19h2M0,20h2M6,20h2M10,20h12M24,20h2M30,20h2M0,21h2M6,21h2M10,21h12M24,21h2M30,21h2M0,22h2M6,22h2M24,22h2M30,22h2M0,23h2M6,23h2M24,23h2M30,23h2M0,24h2M6,24h20M30,24h2M0,25h2M6,25h20M30,25h2M0,26h2M30,26h2M0,27h2M30,27h2M0,28h2M30,28h2M0,29h3M29,29h3M0,30h32M0,31h32"/><path stroke="#f5f5f5" d="M3,2h26M2,3h28M2,4h28M2,5h28M2,6h4M26,6h4M2,7h4M26,7h4M2,8h4M8,8h7M17,8h7M26,8h4M2,9h4M8,9h7M17,9h7M26,9h4M2,10h4M8,10h2M20,10h4M26,10h4M2,11h4M8,11h2M19,11h5M26,11h4M2,12h4M8,12h2M18,12h3M22,12h2M26,12h4M2,13h4M8,13h2M17,13h3M22,13h2M26,13h4M2,14h4M8,14h2M16,14h3M22,14h2M26,14h4M2,15h4M8,15h2M15,15h3M26,15h4M2,16h4M8,16h2M14,16h3M26,16h4M2,17h4M8,17h2M13,17h3M22,17h2M26,17h4M2,18h4M8,18h2M12,18h3M22,18h2M26,18h4M2,19h4M8,19h2M12,19h2M22,19h2M26,19h4M2,20h4M8,20h2M22,20h2M26,20h4M2,21h4M8,21h2M22,21h2M26,21h4M2,22h4M8,22h16M26,22h4M2,23h4M8,23h16M26,23h4M2,24h4M26,24h4M2,25h4M26,25h4M2,26h28M2,27h28M2,28h28M3,29h26"/></svg>
