<svg xmlns="http://www.w3.org/2000/svg" shape-rendering="crispEdges" viewBox="0 -0.5 32 32" width="32" height="32"><path stroke="#b0e997" d="M0,0h32M0,1h32M0,2h3M29,2h3M0,3h2M30,3h2M0,4h2M30,4h2M0,5h2M30,5h2M0,6h2M6,6h20M30,6h2M0,7h2M6,7h20M30,7h2M0,8h2M6,8h14M23,8h3M30,8h2M0,9h2M6,9h14M23,9h3M30,9h2M0,10h2M6,10h13M22,10h4M30,10h2M0,11h2M6,11h13M22,11h4M30,11h2M0,12h2M6,12h12M21,12h5M30,12h2M0,13h2M6,13h12M21,13h5M30,13h2M0,14h2M6,14h11M20,14h6M30,14h2M0,15h2M6,15h11M20,15h6M30,15h2M0,16h2M6,16h3M12,16h4M19,16h7M30,16h2M0,17h2M6,17h3M12,17h4M19,17h7M30,17h2M0,18h2M6,18h4M13,18h2M18,18h8M30,18h2M0,19h2M6,19h4M13,19h2M18,19h8M30,19h2M0,20h2M6,20h5M17,20h9M30,20h2M0,21h2M6,21h5M17,21h9M30,21h2M0,22h2M6,22h6M16,22h10M30,22h2M0,23h2M6,23h6M16,23h10M30,23h2M0,24h2M6,24h20M30,24h2M0,25h2M6,25h20M30,25h2M0,26h2M30,26h2M0,27h2M30,27h2M0,28h2M30,28h2M0,29h3M29,29h3M0,30h32M0,31h32"/><path stroke="#f5f5f5" d="M3,2h26M2,3h28M2,4h28M2,5h28M2,6h4M26,6h4M2,7h4M26,7h4M2,8h4M20,8h3M26,8h4M2,9h4M20,9h3M26,9h4M2,10h4M19,10h3M26,10h4M2,11h4M19,11h3M26,11h4M2,12h4M18,12h3M26,12h4M2,13h4M18,13h3M26,13h4M2,14h4M17,14h3M26,14h4M2,15h4M17,15h3M26,15h4M2,16h4M9,16h3M16,16h3M26,16h4M2,17h4M9,17h3M16,17h3M26,17h4M2,18h4M10,18h3M15,18h3M26,18h4M2,19h4M10,19h3M15,19h3M26,19h4M2,20h4M11,20h6M26,20h4M2,21h4M11,21h6M26,21h4M2,22h4M12,22h4M26,22h4M2,23h4M12,23h4M26,23h4M2,24h4M26,24h4M2,25h4M26,25h4M2,26h28M2,27h28M2,28h28M3,29h26"/></svg>
