<svg xmlns="http://www.w3.org/2000/svg" shape-rendering="crispEdges" viewBox="0 -0.5 32 32" width="32" height="32"><path stroke="#f0a772" d="M0,0h32M0,1h32M0,2h3M29,2h3M0,3h2M30,3h2M0,4h2M30,4h2M0,5h2M30,5h2M0,6h2M6,6h20M30,6h2M0,7h2M6,7h20M30,7h2M0,8h2M6,8h4M14,8h4M22,8h4M30,8h2M0,9h2M6,9h4M14,9h4M22,9h4M30,9h2M0,10h2M6,10h4M14,10h4M22,10h4M30,10h2M0,11h2M6,11h4M14,11h4M22,11h4M30,11h2M0,12h2M6,12h4M14,12h4M22,12h4M30,12h2M0,13h2M6,13h4M14,13h4M22,13h4M30,13h2M0,14h2M6,14h4M14,14h4M22,14h4M30,14h2M0,15h2M6,15h4M14,15h4M22,15h4M30,15h2M0,16h2M6,16h4M14,16h4M22,16h4M30,16h2M0,17h2M6,17h4M14,17h4M22,17h4M30,17h2M0,18h2M6,18h4M14,18h4M22,18h4M30,18h2M0,19h2M6,19h4M14,19h4M22,19h4M30,19h2M0,20h2M6,20h4M14,20h4M22,20h4M30,20h2M0,21h2M6,21h4M14,21h4M22,21h4M30,21h2M0,22h2M6,22h4M14,22h4M22,22h4M30,22h2M0,23h2M6,23h4M14,23h4M22,23h4M30,23h2M0,24h2M6,24h20M30,24h2M0,25h2M6,25h20M30,25h2M0,26h2M30,26h2M0,27h2M30,27h2M0,28h2M30,28h2M0,29h3M29,29h3M0,30h32M0,31h32"/><path stroke="#f5f5f5" d="M3,2h26M2,3h28M2,4h28M2,5h28M2,6h4M26,6h4M2,7h4M26,7h4M2,8h4M10,8h4M18,8h4M26,8h4M2,9h4M10,9h4M18,9h4M26,9h4M2,10h4M10,10h4M18,10h4M26,10h4M2,11h4M10,11h4M18,11h4M26,11h4M2,12h4M10,12h4M18,12h4M26,12h4M2,13h4M10,13h4M18,13h4M26,13h4M2,14h4M10,14h4M18,14h4M26,14h4M2,15h4M10,15h4M18,15h4M26,15h4M2,16h4M10,16h4M18,16h4M26,16h4M2,17h4M10,17h4M18,17h4M26,17h4M2,18h4M10,18h4M18,18h4M26,18h4M2,19h4M10,19h4M18,19h4M26,19h4M2,20h4M10,20h4M18,20h4M26,20h4M2,21h4M10,21h4M18,21h4M26,21h4M2,22h4M10,22h4M18,22h4M26,22h4M2,23h4M10,23h4M18,23h4M26,23h4M2,24h4M26,24h4M2,25h4M26,25h4M2,26h28M2,27h28M2,28h28M3,29h26"/></svg>
