<svg xmlns="http://www.w3.org/2000/svg" shape-rendering="crispEdges" viewBox="0 -0.5 32 32" width="32" height="32"><metadata>Generated with pixel-perfect-svg https://github.com/kagof/pixel-perfect-svg</metadata><path stroke="#eec66e" d="M0,0h32M0,1h32M0,2h3M29,2h3M0,3h2M30,3h2M0,4h2M30,4h2M0,5h2M30,5h2M0,6h2M6,6h20M30,6h2M0,7h2M6,7h20M30,7h2M0,8h2M6,8h9M17,8h9M30,8h2M0,9h2M6,9h9M17,9h9M30,9h2M0,10h2M6,10h9M17,10h9M30,10h2M0,11h2M6,11h9M17,11h9M30,11h2M0,12h2M6,12h9M17,12h9M30,12h2M0,13h2M6,13h9M17,13h9M30,13h2M0,14h2M6,14h9M17,14h9M30,14h2M0,15h2M6,15h9M24,15h2M30,15h2M0,16h2M6,16h9M24,16h2M30,16h2M0,17h2M6,17h20M30,17h2M0,18h2M6,18h20M30,18h2M0,19h2M6,19h20M30,19h2M0,20h2M6,20h20M30,20h2M0,21h2M6,21h20M30,21h2M0,22h2M6,22h20M30,22h2M0,23h2M6,23h20M30,23h2M0,24h2M6,24h20M30,24h2M0,25h2M6,25h20M30,25h2M0,26h2M30,26h2M0,27h2M30,27h2M0,28h2M30,28h2M0,29h3M29,29h3M0,30h32M0,31h32"/><path stroke="#f5f5f5" d="M3,2h26M2,3h28M2,4h28M2,5h28M2,6h4M26,6h4M2,7h4M26,7h4M2,8h4M15,8h2M26,8h4M2,9h4M15,9h2M26,9h4M2,10h4M15,10h2M26,10h4M2,11h4M15,11h2M26,11h4M2,12h4M15,12h2M26,12h4M2,13h4M15,13h2M26,13h4M2,14h4M15,14h2M26,14h4M2,15h4M15,15h9M26,15h4M2,16h4M15,16h9M26,16h4M2,17h4M26,17h4M2,18h4M26,18h4M2,19h4M26,19h4M2,20h4M26,20h4M2,21h4M26,21h4M2,22h4M26,22h4M2,23h4M26,23h4M2,24h4M26,24h4M2,25h4M26,25h4M2,26h28M2,27h28M2,28h28M3,29h26"/></svg>
