<svg xmlns="http://www.w3.org/2000/svg" shape-rendering="crispEdges" viewBox="0 -0.5 32 32" width="32" height="32"><path stroke="#5f5f5f" d="M0,0h32M0,1h32M0,2h3M29,2h3M0,3h2M30,3h2M0,4h2M30,4h2M0,5h2M30,5h2M0,6h2M6,6h20M30,6h2M0,7h2M6,7h20M30,7h2M0,8h2M6,8h3M11,8h10M23,8h3M30,8h2M0,9h2M6,9h3M12,9h1M19,9h1M23,9h3M30,9h2M0,10h2M6,10h4M22,10h4M30,10h2M0,11h2M6,11h4M22,11h4M30,11h2M0,12h2M6,12h3M23,12h3M30,12h2M0,13h2M6,13h3M23,13h3M30,13h2M0,14h2M6,14h3M23,14h3M30,14h2M0,15h2M6,15h3M23,15h3M30,15h2M0,16h2M6,16h3M23,16h3M30,16h2M0,17h2M6,17h4M22,17h4M30,17h2M0,18h2M6,18h5M21,18h5M30,18h2M0,19h2M6,19h1M8,19h5M19,19h7M30,19h2M0,20h2M6,20h2M10,20h4M18,20h8M30,20h2M0,21h2M6,21h3M11,21h2M19,21h7M30,21h2M0,22h2M6,22h4M19,22h7M30,22h2M0,23h2M6,23h5M19,23h7M30,23h2M0,24h2M6,24h7M19,24h7M30,24h2M0,25h2M6,25h7M19,25h7M30,25h2M0,26h2M30,26h2M0,27h2M30,27h2M0,28h2M30,28h2M0,29h3M29,29h3M0,30h32M0,31h32"/><path stroke="#f5f5f5" d="M3,2h26M2,3h28M2,4h28M2,5h28M2,6h4M26,6h4M2,7h4M26,7h4M2,8h4M9,8h2M21,8h2M26,8h4M2,9h4M9,9h3M13,9h6M20,9h3M26,9h4M2,10h4M10,10h12M26,10h4M2,11h4M10,11h12M26,11h4M2,12h4M9,12h14M26,12h4M2,13h4M9,13h14M26,13h4M2,14h4M9,14h14M26,14h4M2,15h4M9,15h14M26,15h4M2,16h4M9,16h14M26,16h4M2,17h4M10,17h12M26,17h4M2,18h4M11,18h10M26,18h4M2,19h4M7,19h1M13,19h6M26,19h4M2,20h4M8,20h2M14,20h4M26,20h4M2,21h4M9,21h2M13,21h6M26,21h4M2,22h4M10,22h9M26,22h4M2,23h4M11,23h8M26,23h4M2,24h4M13,24h6M26,24h4M2,25h4M13,25h6M26,25h4M2,26h28M2,27h28M2,28h28M3,29h26"/></svg>
