<svg xmlns="http://www.w3.org/2000/svg" shape-rendering="crispEdges" viewBox="0 -0.5 32 32" width="32" height="32"><path stroke="#7bacf7" d="M0,0h32M0,1h32M0,2h3M29,2h3M0,3h2M30,3h2M0,4h2M30,4h2M0,5h2M30,5h2M0,6h2M6,6h20M30,6h2M0,7h2M6,7h20M30,7h2M0,8h2M6,8h3M11,8h15M30,8h2M0,9h2M6,9h2M12,9h14M30,9h2M0,10h2M6,10h2M12,10h14M30,10h2M0,11h2M6,11h3M11,11h15M30,11h2M0,12h2M6,12h20M30,12h2M0,13h2M6,13h20M30,13h2M0,14h2M6,14h2M12,14h2M18,14h1M23,14h3M30,14h2M0,15h2M6,15h2M12,15h2M24,15h2M30,15h2M0,16h2M6,16h2M12,16h2M24,16h2M30,16h2M0,17h2M6,17h2M12,17h2M24,17h2M30,17h2M0,18h2M6,18h2M12,18h2M19,18h1M24,18h2M30,18h2M0,19h2M6,19h2M12,19h2M18,19h2M24,19h2M30,19h2M0,20h2M6,20h2M12,20h2M18,20h2M24,20h2M30,20h2M0,21h2M6,21h2M12,21h2M18,21h2M24,21h2M30,21h2M0,22h2M6,22h2M12,22h2M18,22h2M24,22h2M30,22h2M0,23h2M6,23h2M12,23h2M18,23h2M24,23h2M30,23h2M0,24h2M6,24h20M30,24h2M0,25h2M6,25h20M30,25h2M0,26h2M30,26h2M0,27h2M30,27h2M0,28h2M30,28h2M0,29h3M29,29h3M0,30h32M0,31h32"/><path stroke="#f5f5f5" d="M3,2h26M2,3h28M2,4h28M2,5h28M2,6h4M26,6h4M2,7h4M26,7h4M2,8h4M9,8h2M26,8h4M2,9h4M8,9h4M26,9h4M2,10h4M8,10h4M26,10h4M2,11h4M9,11h2M26,11h4M2,12h4M26,12h4M2,13h4M26,13h4M2,14h4M8,14h4M14,14h4M19,14h4M26,14h4M2,15h4M8,15h4M14,15h10M26,15h4M2,16h4M8,16h4M14,16h10M26,16h4M2,17h4M8,17h4M14,17h10M26,17h4M2,18h4M8,18h4M14,18h5M20,18h4M26,18h4M2,19h4M8,19h4M14,19h4M20,19h4M26,19h4M2,20h4M8,20h4M14,20h4M20,20h4M26,20h4M2,21h4M8,21h4M14,21h4M20,21h4M26,21h4M2,22h4M8,22h4M14,22h4M20,22h4M26,22h4M2,23h4M8,23h4M14,23h4M20,23h4M26,23h4M2,24h4M26,24h4M2,25h4M26,25h4M2,26h28M2,27h28M2,28h28M3,29h26"/></svg>
