<svg xmlns="http://www.w3.org/2000/svg" shape-rendering="crispEdges" viewBox="0 -0.5 32 32" width="32" height="32"><path stroke="#e35151" d="M0,0h32M0,1h32M0,2h3M29,2h3M0,3h2M30,3h2M0,4h2M30,4h2M0,5h2M30,5h2M0,6h2M6,6h20M30,6h2M0,7h2M6,7h20M30,7h2M0,8h2M6,8h2M10,8h12M24,8h2M30,8h2M0,9h2M6,9h2M11,9h10M24,9h2M30,9h2M0,10h2M6,10h3M12,10h8M23,10h3M30,10h2M0,11h2M6,11h4M13,11h6M22,11h4M30,11h2M0,12h2M6,12h5M14,12h4M21,12h5M30,12h2M0,13h2M6,13h6M15,13h2M20,13h6M30,13h2M0,14h2M6,14h7M19,14h7M30,14h2M0,15h2M6,15h8M18,15h8M30,15h2M0,16h2M6,16h8M18,16h8M30,16h2M0,17h2M6,17h7M19,17h7M30,17h2M0,18h2M6,18h6M15,18h2M20,18h6M30,18h2M0,19h2M6,19h5M14,19h4M21,19h5M30,19h2M0,20h2M6,20h4M13,20h6M22,20h4M30,20h2M0,21h2M6,21h3M12,21h8M23,21h3M30,21h2M0,22h2M6,22h2M11,22h10M24,22h2M30,22h2M0,23h2M6,23h2M10,23h12M24,23h2M30,23h2M0,24h2M6,24h20M30,24h2M0,25h2M6,25h20M30,25h2M0,26h2M30,26h2M0,27h2M30,27h2M0,28h2M30,28h2M0,29h3M29,29h3M0,30h32M0,31h32"/><path stroke="#f5f5f5" d="M3,2h26M2,3h28M2,4h28M2,5h28M2,6h4M26,6h4M2,7h4M26,7h4M2,8h4M8,8h2M22,8h2M26,8h4M2,9h4M8,9h3M21,9h3M26,9h4M2,10h4M9,10h3M20,10h3M26,10h4M2,11h4M10,11h3M19,11h3M26,11h4M2,12h4M11,12h3M18,12h3M26,12h4M2,13h4M12,13h3M17,13h3M26,13h4M2,14h4M13,14h6M26,14h4M2,15h4M14,15h4M26,15h4M2,16h4M14,16h4M26,16h4M2,17h4M13,17h6M26,17h4M2,18h4M12,18h3M17,18h3M26,18h4M2,19h4M11,19h3M18,19h3M26,19h4M2,20h4M10,20h3M19,20h3M26,20h4M2,21h4M9,21h3M20,21h3M26,21h4M2,22h4M8,22h3M21,22h3M26,22h4M2,23h4M8,23h2M22,23h2M26,23h4M2,24h4M26,24h4M2,25h4M26,25h4M2,26h28M2,27h28M2,28h28M3,29h26"/></svg>
